HIERARCHY
ROOT SpineBase
{
  OFFSET 0.000000 0.000000 0.000000
  CHANNELS 6 Xposition Yposition Zposition Zrotation Xrotation Yrotation
  JOINT SpineMid
  {
    OFFSET -0.000000 29.756176 0.000000
    CHANNELS 3 Zrotation Xrotation Yrotation
    JOINT SpineShoulder
    {
      OFFSET 0.020157 22.167831 -0.739576
      CHANNELS 3 Zrotation Xrotation Yrotation
      JOINT Neck
      {
        OFFSET 0.005332 7.360889 -0.560833
        CHANNELS 3 Zrotation Xrotation Yrotation
        JOINT Head
        {
          OFFSET -0.695527 13.917449 -2.092045
          CHANNELS 3 Zrotation Xrotation Yrotation
          End Site
          {
            OFFSET 0 0 0
          }
        }
      }
      JOINT ShoulderLeft
      {
        OFFSET -16.741177 -2.498601 -2.866030
        CHANNELS 3 Zrotation Xrotation Yrotation
        JOINT ElbowLeft
        {
          OFFSET -7.415647 -24.283362 3.767526
          CHANNELS 3 Zrotation Xrotation Yrotation
          JOINT WristLeft
          {
            OFFSET 0.995852 -20.856297 -6.555288
            CHANNELS 3 Zrotation Xrotation Yrotation
            JOINT HandLeft
            {
              OFFSET 0.629584 -5.314867 -3.099517
              CHANNELS 3 Zrotation Xrotation Yrotation
              JOINT HandTipLeft
              {
                OFFSET 0.160013 -4.229048 -2.523380
                CHANNELS 3 Zrotation Xrotation Yrotation
                End Site
                {
                  OFFSET 0 0 0
                }
              }
              JOINT ThumbLeft
              {
                OFFSET -2.500594 0.620957 -3.577090
                CHANNELS 3 Zrotation Xrotation Yrotation
                End Site
                {
                  OFFSET 0 0 0
                }
              }
            }
          }
        }
      }
      JOINT ShoulderRight
      {
        OFFSET 15.967817 -2.851733 -0.718603
        CHANNELS 3 Zrotation Xrotation Yrotation
        JOINT ElbowRight
        {
          OFFSET 4.155103 -26.948421 3.871528
          CHANNELS 3 Zrotation Xrotation Yrotation
          JOINT WristRight
          {
            OFFSET -1.056068 -20.707173 -7.197329
            CHANNELS 3 Zrotation Xrotation Yrotation
            JOINT HandRight
            {
              OFFSET -1.326859 -2.993380 -0.772763
              CHANNELS 3 Zrotation Xrotation Yrotation
              JOINT HandTipRight
              {
                OFFSET -0.349754 -6.585010 -1.623227
                CHANNELS 3 Zrotation Xrotation Yrotation
                End Site
                {
                  OFFSET 0 0 0
                }
              }
              JOINT ThumbRight
              {
                OFFSET 3.296342 -0.200153 -1.822650
                CHANNELS 3 Zrotation Xrotation Yrotation
                End Site
                {
                  OFFSET 0 0 0
                }
              }
            }
          }
        }
      }
    }
  }
  JOINT HipLeft
  {
    OFFSET -7.183249 1.135679 -3.421497
    CHANNELS 3 Zrotation Xrotation Yrotation
    JOINT KneeLeft
    {
      OFFSET -3.677243 -24.361613 -0.409265
      CHANNELS 3 Zrotation Xrotation Yrotation
      JOINT AnkleLeft
      {
        OFFSET -0.588692 -33.841022 13.975747
        CHANNELS 3 Zrotation Xrotation Yrotation
        JOINT FootLeft
        {
          OFFSET 0.560306 -2.429086 -10.534984
          CHANNELS 3 Zrotation Xrotation Yrotation
          End Site
          {
            OFFSET 0 0 0
          }
        }
      }
    }
  }
  JOINT HipRight
  {
    OFFSET 7.213748 1.040813 -3.112602
    CHANNELS 3 Zrotation Xrotation Yrotation
    JOINT KneeRight
    {
      OFFSET 4.919673 -25.465831 0.072673
      CHANNELS 3 Zrotation Xrotation Yrotation
      JOINT AnkleRight
      {
        OFFSET 1.161299 -32.004545 11.587457
        CHANNELS 3 Zrotation Xrotation Yrotation
        JOINT FootRight
        {
          OFFSET 0.721717 -1.922737 -11.535368
          CHANNELS 3 Zrotation Xrotation Yrotation
          End Site
          {
            OFFSET 0 0 0
          }
        }
      }
    }
  }
}
MOTION
Frames: 8
Frame Time: 0.033333
-0.015004 64.705527 330.121256 0.000000 0.000000 -1.229119 -0.000000 0.000000 1.229119 -0.000000 0.000000 0.000000 -0.000000 0.000000 0.000000 0.000000 0.000000 0.000000 -0.000000 0.000000 0.000000 -0.000000 0.000000 0.000000 -0.000000 0.000000 0.000000 -0.000000 0.000000 0.000000 0.000000 0.000000 0.000000 0.000000 0.000000 0.000000 -0.000000 0.000000 0.000000 -0.000000 0.000000 0.000000 -0.000000 0.000000 0.000000 -0.000000 0.000000 0.000000 0.000000 0.000000 0.000000 0.000000 0.000000 0.000000 -0.000000 0.000000 1.229119 -0.000000 0.000000 0.000000 -0.000000 0.000000 0.000000 0.000000 0.000000 0.000000 -0.000000 0.000000 1.229119 -0.000000 0.000000 0.000000 -0.000000 0.000000 0.000000 0.000000 0.000000 0.000000
0.178897 64.647782 330.225462 0.128636 -0.009687 -2.226785 -0.128915 0.004682 2.226801 -0.000000 0.000000 0.000000 -0.000000 0.000000 0.000000 0.000000 0.000000 0.000000 0.161260 1.348064 -0.389445 -0.152136 -1.349124 0.385757 1.369790 3.603050 -0.406966 -0.121465 -4.024883 -0.342230 0.000000 0.000000 0.000000 0.000000 0.000000 0.000000 -0.000000 0.000000 0.000000 0.959545 1.205392 -0.403789 -1.174214 -3.347583 1.385929 2.799021 1.662891 -1.702792 0.000000 0.000000 0.000000 0.000000 0.000000 0.000000 -0.128915 0.004682 2.226801 -0.000000 0.000000 0.000000 0.050979 -2.053073 -0.752171 0.000000 0.000000 0.000000 -0.128915 0.004682 2.226801 -0.000000 0.000000 0.000000 -0.390150 -4.230482 0.949123 0.000000 0.000000 0.000000
0.411447 64.595419 330.319650 0.277328 -0.050939 -3.194708 -0.279736 0.035404 3.194918 -0.000000 0.000000 0.000000 -0.000000 0.000000 0.000000 0.000000 0.000000 0.000000 0.283080 2.562235 -0.748146 1.027058 -2.510788 0.393673 1.409786 5.682375 -0.614177 -0.373407 -6.951746 -0.387860 0.000000 0.000000 0.000000 0.000000 0.000000 0.000000 -0.000000 0.000000 0.000000 1.906377 2.089550 -0.799619 -2.186498 -5.523194 2.319606 5.207515 2.203879 -2.986669 0.000000 0.000000 0.000000 0.000000 0.000000 0.000000 -0.279736 0.035404 3.194918 -0.772041 -0.385658 -0.314259 0.900637 -3.344133 -1.248781 0.000000 0.000000 0.000000 -0.279736 0.035404 3.194918 -0.000000 0.000000 0.000000 -0.678114 -8.204951 1.646918 0.000000 0.000000 0.000000
0.682647 64.548438 330.403819 0.446035 -0.123748 -4.132806 -0.453794 0.091278 4.133649 -0.000000 0.000000 0.000000 -1.011852 -0.606258 -0.187689 0.000000 0.000000 0.000000 0.356308 3.610851 -1.065186 1.623981 -3.581266 0.564897 2.111603 6.577678 -1.173349 -0.749839 -8.973680 -0.200566 0.000000 0.000000 0.000000 0.000000 0.000000 0.000000 -0.000000 0.000000 0.000000 2.837411 2.653919 -1.179484 -3.097602 -6.683569 2.894952 7.051357 1.837662 -3.761330 0.000000 0.000000 0.000000 0.000000 0.000000 0.000000 -0.453794 0.091278 4.133649 -1.083068 -0.552476 -0.441958 1.303348 -4.387796 -1.963773 0.000000 0.000000 0.000000 -0.759100 -0.757466 3.971443 -0.309174 1.500685 -0.047240 -0.152506 -12.223504 2.207606 0.000000 0.000000 0.000000
0.992497 64.506838 330.477969 0.634701 -0.228089 -5.041106 -0.652291 0.171422 5.043345 -0.000000 0.000000 0.000000 -1.794619 -0.806114 -0.322609 0.000000 0.000000 0.000000 0.372404 4.464466 -1.330090 2.281022 -4.488724 0.702241 2.844974 6.397907 -1.851174 -1.253953 -10.213559 0.191234 0.000000 0.000000 0.000000 0.000000 0.000000 0.000000 -0.000000 0.000000 0.000000 3.749991 2.900080 -1.535729 -3.940746 -6.938007 3.173308 8.168160 0.727271 -3.965788 0.000000 0.000000 0.000000 0.000000 0.000000 0.000000 -0.652291 0.171422 5.043345 -1.348149 -0.704281 -0.551305 1.685443 -4.908045 -2.705039 0.000000 0.000000 0.000000 -1.177937 -0.960316 4.828858 -0.284885 2.014788 -0.063503 -0.001756 -14.827317 2.189622 0.000000 0.000000 0.000000
1.340996 64.470620 330.542100 0.843259 -0.363911 -5.919732 -0.876304 0.274963 5.924512 -0.000000 0.000000 0.000000 -2.796099 -1.002372 -0.494897 0.000000 0.000000 0.000000 0.324186 5.097326 -1.533606 2.999146 -5.208423 0.792029 3.621170 5.216068 -2.621099 -1.891674 -10.734352 0.782473 0.000000 0.000000 0.000000 0.000000 0.000000 0.000000 -0.640489 -0.499825 -0.171918 5.274862 3.342684 -1.735620 -4.733037 -6.360254 3.195593 8.423654 -1.011875 -3.582663 0.000000 0.000000 0.000000 0.000000 0.000000 0.000000 -1.470452 0.890470 5.837816 -1.040047 -1.517550 -0.565618 2.055996 -4.863665 -3.445351 0.000000 0.000000 0.000000 -1.680971 -1.143709 5.658721 -0.202313 2.539760 -0.081809 0.231314 -16.184906 1.696011 0.000000 0.000000 0.000000
1.644953 64.455698 330.572969 1.021052 -0.504654 -6.574708 -0.141451 0.068713 6.609139 -0.125252 0.014092 0.028771 -4.521236 -0.824448 -0.696168 0.000000 0.000000 0.000000 -0.142945 5.869286 -1.678477 3.482865 -5.043384 0.707928 4.557474 1.856973 -3.547605 -1.852835 -10.769711 1.280895 0.000000 0.000000 0.000000 0.000000 0.000000 0.000000 -1.582158 -0.056169 -0.242495 6.739964 2.829574 -2.155908 -7.510023 -5.258731 3.545985 10.520535 -5.141115 -3.305511 0.000000 0.000000 0.000000 0.000000 0.000000 0.000000 -1.999437 0.941851 6.508382 -0.758850 -1.441342 -0.592147 2.274937 -3.980821 -3.922126 0.000000 0.000000 0.000000 -2.322954 -1.237153 6.285204 0.161439 2.763829 -0.091686 0.374005 -16.384591 1.142413 0.000000 0.000000 0.000000
2.087361 64.438508 330.607023 1.323523 -0.709288 -7.458052 -0.174877 0.076198 7.505488 -0.145244 -0.001156 0.039263 -6.384427 -0.891567 -0.968861 0.000000 0.000000 0.000000 -0.481289 6.031629 -1.691694 4.266230 -4.989045 0.553678 5.629679 -1.874119 -4.531560 -3.703226 -11.008882 2.961502 0.000000 0.000000 0.000000 0.000000 0.000000 0.000000 -1.945625 -0.132503 -0.317418 7.798288 2.349957 -2.410939 -8.304740 -2.731209 3.044852 8.250685 -8.449096 -1.525919 0.000000 0.000000 0.000000 0.000000 0.000000 0.000000 -2.929545 0.973041 7.421271 -0.261271 -1.758249 -0.643150 2.615207 -2.156938 -4.507538 0.000000 0.000000 0.000000 -3.149623 -1.275746 7.152450 0.511661 3.134780 -0.124106 0.704513 -15.308805 -0.035463 0.000000 0.000000 0.000000
